<?xml version="1.0" encoding="utf-8"?>
<!-- Generator: Adobe Illustrator 28.3.0, SVG Export Plug-In . SVG Version: 6.00 Build 0)  -->
<svg version="1.1" id="Layer_1" xmlns="http://www.w3.org/2000/svg" xmlns:xlink="http://www.w3.org/1999/xlink" x="0px" y="0px"
	 viewBox="0 0 443.5 198.1" style="enable-background:new 0 0 443.5 198.1;" xml:space="preserve">
<style type="text/css">
	.st0{clip-path:url(#SVGID_00000158708192212845006710000016703672336757094576_);}
	.st1{clip-path:url(#SVGID_00000079443582193064534030000011138155874456111034_);}
	.st2{opacity:0.971;}
	.st3{clip-path:url(#SVGID_00000056429971984614829610000017156324326491905181_);}
	.st4{fill:#DCFFF0;}
	.st5{opacity:0.6;}
	.st6{clip-path:url(#SVGID_00000015333762269766870510000001273593371465634234_);}
	.st7{fill:#DCFFF0;stroke:#FFFFFF;stroke-width:0.102;}
	.st8{clip-path:url(#SVGID_00000071528957919219105320000011762913877097129390_);}
	.st9{opacity:0.2;}
	.st10{clip-path:url(#SVGID_00000051364054710360689480000011338585639144774538_);}
	.st11{fill:none;stroke:#FFFFFF;stroke-width:0.102;}
	.st12{fill:#097789;}
	.st13{opacity:0.425;}
	.st14{clip-path:url(#SVGID_00000152943740618574650780000014223572749807938200_);}
	.st15{fill:none;stroke:#FFFFFF;stroke-width:1.24;}
	.st16{clip-path:url(#SVGID_00000147919500178194541150000018165520437823638191_);}
	.st17{opacity:0.952;fill:#BE2BBB;enable-background:new    ;}
	.st18{clip-path:url(#SVGID_00000071534666596211978350000009544355841181269387_);}
	.st19{fill:#FFFFFF;}
</style>
<g id="Mask_Group_37" transform="translate(-2023.839 -3939.98)">
	<g id="Group_1605" transform="translate(1832.839 3874.573)">
		<g>
			<defs>
				<rect id="SVGID_1_" x="-64.1" y="0" width="846.8" height="1036"/>
			</defs>
			<clipPath id="SVGID_00000102514992055465793450000008665861844482637207_">
				<use xlink:href="#SVGID_1_"  style="overflow:visible;"/>
			</clipPath>
			<g id="Group_1625" style="clip-path:url(#SVGID_00000102514992055465793450000008665861844482637207_);">
				<g id="Group_1617" transform="translate(421.989 64.86)">
					<g>
						<defs>
							<rect id="SVGID_00000088122187978206668290000009642865549350820256_" x="-64.1" y="0" width="269.5" height="198.5"/>
						</defs>
						<clipPath id="SVGID_00000067931746719712832070000014055288171966804641_">
							<use xlink:href="#SVGID_00000088122187978206668290000009642865549350820256_"  style="overflow:visible;"/>
						</clipPath>
						<g id="Group_1616" style="clip-path:url(#SVGID_00000067931746719712832070000014055288171966804641_);">
							<g id="Group_1612" transform="translate(-28.069 -64.86)" class="st2">
								<g id="Group_1611" transform="translate(0 0)">
									<g>
										<defs>
											<rect id="SVGID_00000132052619498736528400000005589871454382047917_" x="-64.1" y="0" width="297.6" height="297.5"/>
										</defs>
										<clipPath id="SVGID_00000148656714725091714760000010958051241364822686_">
											<use xlink:href="#SVGID_00000132052619498736528400000005589871454382047917_"  style="overflow:visible;"/>
										</clipPath>
										<g id="Group_1610" style="clip-path:url(#SVGID_00000148656714725091714760000010958051241364822686_);">
											
												<rect id="Rectangle_2102" x="-19.4" y="42.5" transform="matrix(0.7071 -0.7071 0.7071 0.7071 -80.3956 103.4563)" class="st4" width="208.2" height="212.6"/>
										</g>
									</g>
								</g>
							</g>
							<g id="Group_1615" transform="translate(-43.479 -62.922)" class="st5">
								<g id="Group_1614" transform="translate(0 0)">
									<g>
										<defs>
											<rect id="SVGID_00000145040354891983722880000015564761429687156368_" x="-64.1" y="0" width="295.7" height="295.4"/>
										</defs>
										<clipPath id="SVGID_00000067954728138590346840000014002583322819784613_">
											<use xlink:href="#SVGID_00000145040354891983722880000015564761429687156368_"  style="overflow:visible;"/>
										</clipPath>
										<g id="Group_1613" style="clip-path:url(#SVGID_00000067954728138590346840000014002583322819784613_);">
											<path id="Path_5330" class="st7" d="M83.8,295.1L-63.5,147.9L83.8,0.6L231,147.9L83.8,295.1"/>
										</g>
									</g>
								</g>
							</g>
						</g>
					</g>
				</g>
				<g id="Group_1622" transform="translate(421.989 64.86)">
					<g>
						<defs>
							<polygon id="SVGID_00000099656656246736323230000014540648023860892840_" points="-12.3,0 -64.1,51.8 -64.1,137.5 
								-3.1,198.5 83.7,198.5 187.5,94.6 92.9,0 							"/>
						</defs>
						<clipPath id="SVGID_00000083069649824610435230000014113644434971244428_">
							<use xlink:href="#SVGID_00000099656656246736323230000014540648023860892840_"  style="overflow:visible;"/>
						</clipPath>
						<g id="Group_1621" style="clip-path:url(#SVGID_00000083069649824610435230000014113644434971244428_);">
							<g id="Group_1620" transform="translate(-43.479 -62.922)" class="st9">
								<g id="Group_1619" transform="translate(0 0)">
									<g>
										<defs>
											<rect id="SVGID_00000068654641751756798840000000867213832854230449_" x="-64.1" y="0" width="295.7" height="295.4"/>
										</defs>
										<clipPath id="SVGID_00000016780878712762366430000013725511653146704827_">
											<use xlink:href="#SVGID_00000068654641751756798840000000867213832854230449_"  style="overflow:visible;"/>
										</clipPath>
										<g id="Group_1618" style="clip-path:url(#SVGID_00000016780878712762366430000013725511653146704827_);">
											<path id="Path_5332" class="st11" d="M83.8,295.1L-63.5,147.9L83.8,0.6L231,147.9L83.8,295.1"/>
										</g>
									</g>
								</g>
							</g>
						</g>
					</g>
				</g>
				<path id="Path_5331" class="st12" d="M409.7,64.9l-51.8,51.8v85.7l61,61h86.8l103.9-103.9l-94.6-94.6H409.7z"/>
				<g id="Group_1649" transform="translate(359.444 -8.328)" class="st13">
					<g>
						<defs>
							<rect id="SVGID_00000063619846438433731720000000004375852285054378_" x="-64.1" y="0" width="313.5" height="313.3"/>
						</defs>
						<clipPath id="SVGID_00000091700124994074206880000005767694560356346558_">
							<use xlink:href="#SVGID_00000063619846438433731720000000004375852285054378_"  style="overflow:visible;"/>
						</clipPath>
						
							<g id="Group_1649-2" transform="translate(0.044 0.043)" style="clip-path:url(#SVGID_00000091700124994074206880000005767694560356346558_);">
							<path id="Path_5348" class="st15" d="M92.6,313.2L-63.8,156.7L92.6,0.3l156.5,156.5L92.6,313.2"/>
						</g>
					</g>
				</g>
				<rect id="Rectangle_2107" x="129.2" y="64.9" class="st12" width="331.9" height="198.6"/>
				<g id="Group_1624" transform="translate(0 0)">
					<g>
						<defs>
							<rect id="SVGID_00000153686366311993495840000003780841555090816444_" x="-64.1" y="0" width="846.8" height="1036"/>
						</defs>
						<clipPath id="SVGID_00000089559767607724594840000010959160983488935589_">
							<use xlink:href="#SVGID_00000153686366311993495840000003780841555090816444_"  style="overflow:visible;"/>
						</clipPath>
						<g id="Group_1623" style="clip-path:url(#SVGID_00000089559767607724594840000010959160983488935589_);">
							<path id="Path_5334" class="st17" d="M561.3,183.7l17.4-17.3c0.4-0.4,0.6-0.9,0.6-1.5c0-0.6-0.2-1.1-0.6-1.5L561.3,146
								c-0.8-0.8-2.2-0.8-3,0c-0.8,0.8-0.8,2.1,0,2.9l15.9,15.9l-15.9,15.9c-0.8,0.8-0.8,2.2,0,3
								C559.2,184.5,560.5,184.5,561.3,183.7"/>
						</g>
					</g>
				</g>
			</g>
		</g>
	</g>
</g>
<g>
	<defs>
		<rect id="SVGID_00000155826315528372485840000018416461010795802795_" x="50.5" y="55.8" width="282" height="84.1"/>
	</defs>
	<clipPath id="SVGID_00000034064806992881327780000006754864166044540047_">
		<use xlink:href="#SVGID_00000155826315528372485840000018416461010795802795_"  style="overflow:visible;"/>
	</clipPath>
	<g id="Group_1626" style="clip-path:url(#SVGID_00000034064806992881327780000006754864166044540047_);">
		<path id="Path_5335" class="st19" d="M177.4,132.7c-0.3-0.1-0.5-0.4-0.4-0.7c0,0,0-0.1,0-0.1l0.4-1.4c0.1-0.4,0.4-0.5,0.8-0.3
			c1.4,0.6,2.9,0.9,4.4,0.9c2.1,0,4.4-1,4.4-3.5c0-1.8-1-2.7-2.7-3.6l-4-2.1c-2.2-1.2-3.4-2.8-3.4-5.1c0-3.6,3.3-5.5,6.6-5.5
			c1.8-0.1,3.5,0.3,5.1,1c0.4,0.2,0.5,0.4,0.3,0.8l-0.5,1.3c-0.1,0.4-0.4,0.5-0.8,0.3c-1.3-0.6-2.6-0.9-4-0.9
			c-1.7,0-3.8,0.8-3.8,2.9c0,1.6,0.9,2.4,2.4,3.2l3.3,1.8c2.5,1.3,4.2,2.9,4.2,5.8c0,4.1-3.4,6.2-7.2,6.2
			C180.9,133.5,179.1,133.2,177.4,132.7 M192.4,127.9v-9.1c0-0.3,0.2-0.6,0.5-0.6c0.1,0,0.1,0,0.2,0h1.4c0.4,0,0.6,0.2,0.6,0.6v8.7
			c0,2.2,0.5,3.8,3,3.8c1.5-0.1,3-0.8,4.1-1.8v-10.7c0-0.3,0.2-0.6,0.5-0.6c0.1,0,0.1,0,0.2,0h1.4c0.4,0,0.6,0.2,0.6,0.6v13.9
			c0,0.4-0.2,0.6-0.6,0.6h-1.4c-0.4,0-0.6-0.2-0.6-0.6l0-1c-1.4,1.2-3.1,1.9-4.9,1.9C193.7,133.5,192.4,131.2,192.4,127.9
			 M208.4,139.3v-20.6c0-0.4,0.2-0.6,0.6-0.6h1.3c0.4,0,0.6,0.2,0.6,0.6l0,1.1c1.2-1.3,2.9-2,4.7-2c4.4,0,6.4,3.7,6.4,7.8
			c0,4.2-2.2,8-6.8,8c-1.6,0-3.1-0.6-4.1-1.8v7.5c0,0.4-0.2,0.7-0.6,0.7H209C208.6,140,208.4,139.8,208.4,139.3 M219.1,125.6
			c0-2.7-0.9-5.7-4.2-5.7c-1.6,0-3,0.8-4,2v7.4c0.8,1.3,2.2,2.2,3.8,2.2C218,131.5,219.1,128.4,219.1,125.6 M224.7,139.3v-20.6
			c0-0.4,0.2-0.6,0.6-0.6h1.3c0.4,0,0.6,0.2,0.6,0.6l0,1.1c1.2-1.3,2.9-2,4.7-2c4.4,0,6.4,3.7,6.4,7.8c0,4.2-2.2,8-6.8,8
			c-1.6,0-3.1-0.6-4.1-1.8v7.5c0,0.4-0.2,0.7-0.6,0.7h-1.4C224.9,140,224.7,139.8,224.7,139.3 M235.5,125.6c0-2.7-0.9-5.7-4.2-5.7
			c-1.6,0-3,0.8-4,2v7.4c0.8,1.3,2.2,2.2,3.8,2.2C234.4,131.5,235.5,128.4,235.5,125.6 M240.4,125.6c0-4.4,2.5-7.9,7.2-7.9
			c4.8,0,7,3.4,7,7.9c0,4.4-2.6,7.9-7.2,7.9C242.5,133.6,240.4,130.1,240.4,125.6 M251.8,125.7c0-2.9-1.1-5.9-4.3-5.9
			c-3.4,0-4.4,3-4.4,5.7c0,2.9,1,5.9,4.3,5.9C250.7,131.5,251.8,128.6,251.8,125.7 M257.3,132.6v-13.9c0-0.4,0.2-0.6,0.6-0.6h1.4
			c0.4,0,0.6,0.2,0.6,0.6l0,1.1c0.8-1.2,2.2-2,3.7-2c0.7,0,1.2,0.1,1.1,0.6l-0.2,1.4c0,0.2-0.2,0.4-0.4,0.4c0,0,0,0,0,0
			c-0.3,0-0.6-0.1-0.9-0.1c-1.3,0.1-2.4,0.8-3.1,1.9v10.7c0,0.4-0.2,0.7-0.6,0.7h-1.4C257.5,133.2,257.3,133,257.3,132.6
			 M268.4,128.6V120h-1.7c-0.3,0-0.5-0.1-0.5-0.5v-0.9c0-0.3,0.1-0.5,0.5-0.5h1.7v-3.5c0-0.4,0.1-0.6,0.5-0.7l1.6-0.2
			c0.4-0.1,0.6,0.1,0.6,0.5v3.9h3.7c0.3,0,0.5,0.1,0.5,0.5v0.9c0,0.3-0.1,0.5-0.5,0.5h-3.7v8.4c0,2,0.4,3,2.2,3
			c0.6,0,1.3-0.1,1.9-0.3c0.3-0.1,0.6-0.1,0.7,0.3l0.3,0.9c0.1,0.3,0,0.5-0.4,0.7c-0.9,0.4-1.9,0.5-2.9,0.6
			C269.2,133.5,268.4,131.8,268.4,128.6 M288.7,135.4l10.2-10.2c0.5-0.5,0.5-1.3,0-1.7l-10.2-10.2c-0.5-0.5-1.2-0.5-1.7,0
			c-0.5,0.5-0.5,1.2,0,1.7c0,0,0,0,0.1,0.1l9.3,9.3l-9.3,9.3c-0.5,0.5-0.5,1.3,0,1.7C287.5,135.9,288.2,135.9,288.7,135.4
			C288.7,135.4,288.7,135.4,288.7,135.4 M276.6,115.4c0-1.4,1.2-2.4,2.5-2.4c1.3,0,2.4,1.1,2.4,2.4c0,1.4-1.1,2.5-2.5,2.5
			C277.7,117.8,276.6,116.7,276.6,115.4 M281.1,115.4c0-1.1-0.9-2-2-2c-1.1,0-2,0.9-2,2c0,1.1,0.9,2,2,2c1.1,0,2-0.8,2-1.8
			C281.1,115.5,281.1,115.4,281.1,115.4 M278.4,116.5v-2.3c0-0.1,0-0.1,0.1-0.1h0.5c0.5,0,0.9,0.2,0.9,0.7c0,0.3-0.2,0.6-0.5,0.7
			l0.6,0.9c0,0,0,0.1,0,0.1h-0.2c0,0-0.1,0-0.1-0.1l-0.5-0.9h-0.3v0.9c0,0.1,0,0.1-0.1,0.1L278.4,116.5
			C278.4,116.6,278.4,116.6,278.4,116.5 M279,115.3c0.2,0,0.5-0.1,0.5-0.4c0,0,0,0,0-0.1c0-0.3-0.2-0.4-0.5-0.4h-0.2v0.9H279z
			 M72.7,80.7c0,1,0.7,1.8,1.7,1.8c1,0,1.8-0.7,1.8-1.7c0,0,0-0.1,0-0.1V68.9c0-1-0.7-1.8-1.7-1.8c-1,0-1.8,0.7-1.8,1.7
			c0,0,0,0.1,0,0.1V80.7z M67.2,78.4c0,1,0.8,1.8,1.8,1.8c1,0,1.8-0.8,1.8-1.8V60.9c0-1-0.8-1.8-1.8-1.8c-1,0-1.8,0.8-1.8,1.8V78.4z
			 M61.6,77c0,1,0.8,1.8,1.8,1.8c1,0,1.8-0.8,1.8-1.8c0,0,0,0,0,0V57.6c0-1-0.8-1.8-1.8-1.8c-1,0-1.8,0.8-1.8,1.8V77z M56,77.4
			c0,1,0.8,1.8,1.8,1.8s1.8-0.8,1.8-1.8V63c0-1-0.8-1.8-1.8-1.8S56,62,56,63V77.4z M61.2,93.8c-0.3,0.6-0.9,1-1.6,1
			c-0.3,0-0.5-0.1-0.8-0.2c-5.5-2.7-8.4-7.4-8.4-13.7v-7.1c0-1,0.7-1.8,1.7-1.8c1,0,1.8,0.7,1.8,1.7c0,0,0,0.1,0,0.1V81
			c-0.2,4.5,2.3,8.7,6.4,10.5C61.3,91.9,61.6,92.9,61.2,93.8"/>
		<path id="Path_5336" class="st19" d="M83.5,132.6l7.8-20.5c0.1-0.3,0.3-0.4,0.6-0.4h1.7c0.3,0,0.5,0.1,0.6,0.4l7.7,20.6
			c0.2,0.4,0.1,0.6-0.4,0.6h-2c-0.4,0-0.6-0.1-0.8-0.5l-2.1-5.9h-8.1l-2.2,5.9c-0.1,0.4-0.3,0.5-0.7,0.5h-1.7
			C83.4,133.2,83.4,133,83.5,132.6 M95.9,124.7l-3.2-9.3h0l-3.3,9.3L95.9,124.7z M103,125.7c0-4.6,2.8-7.9,7.5-7.9
			c1.4,0,2.8,0.3,4,0.9c0.3,0.2,0.4,0.3,0.3,0.7l-0.3,1c-0.1,0.3-0.3,0.4-0.7,0.3c-1-0.5-2.1-0.7-3.2-0.7c-3,0-4.8,2.2-4.8,5.7
			c0,3.2,1.4,6,4.7,6c1.2,0,2.4-0.2,3.5-0.7c0.2-0.1,0.5-0.1,0.6,0.1c0,0,0,0.1,0,0.1l0.3,0.9c0.1,0.4,0.1,0.6-0.3,0.8
			c-1.3,0.6-2.8,0.9-4.2,0.9C105.4,133.5,103,130.3,103,125.7 M116.2,125.7c0-4.6,2.8-7.9,7.5-7.9c1.4,0,2.8,0.3,4,0.9
			c0.3,0.2,0.4,0.3,0.3,0.7l-0.3,1c-0.1,0.3-0.3,0.4-0.7,0.3c-1-0.5-2.1-0.7-3.2-0.7c-3,0-4.8,2.2-4.8,5.7c0,3.2,1.4,6,4.7,6
			c1.2,0,2.4-0.2,3.5-0.7c0.2-0.1,0.5-0.1,0.6,0.1c0,0,0,0.1,0,0.1l0.3,0.9c0.1,0.4,0.1,0.6-0.3,0.8c-1.3,0.6-2.8,0.9-4.2,0.9
			C118.6,133.5,116.2,130.3,116.2,125.7 M129.4,125.6c0-4.6,2.7-7.9,7.2-7.9c4.1,0,6.1,3,6.1,6.6v0.8c0,0.7-0.1,0.9-0.9,0.9h-9.6
			c0.1,2.9,1.7,5.3,4.8,5.3c1.3,0,2.6-0.2,3.8-0.7c0.3-0.1,0.6-0.1,0.7,0.2l0.4,1c0.1,0.3,0,0.5-0.3,0.7c-1.6,0.6-3.2,1-4.9,0.9
			C131.9,133.5,129.4,130.3,129.4,125.6 M140,124.2v-0.6c0-2.1-1.2-3.9-3.6-3.9c-2.6,0-4,2-4.2,4.4L140,124.2z M145,132.5
			c-0.3-0.2-0.4-0.3-0.3-0.6l0.4-1.1c0-0.2,0.2-0.4,0.5-0.3c0,0,0.1,0,0.1,0c1.1,0.5,2.4,0.9,3.6,0.9c1.8,0,3-0.9,3-2.4
			c0-1.2-0.9-1.9-2.3-2.4l-2.1-0.8c-1.8-0.7-3.1-2-3.1-3.9c0-2.8,2.4-4.2,5.2-4.2c1.4,0,2.8,0.3,4,0.8c0.2,0.1,0.4,0.3,0.3,0.5
			c0,0,0,0,0,0.1l-0.4,1c-0.1,0.3-0.3,0.4-0.6,0.3c-1-0.4-2.1-0.7-3.2-0.8c-1.8,0-2.7,0.9-2.7,2s0.7,1.6,2,2.1l2.4,1
			c1.7,0.7,3.2,2,3.2,4c0,2.9-2.4,4.7-5.7,4.7C147.8,133.5,146.3,133.2,145,132.5 M157.4,132.6c-0.3-0.2-0.4-0.3-0.3-0.6l0.4-1.1
			c0-0.2,0.2-0.4,0.5-0.3c0,0,0.1,0,0.1,0c1.1,0.5,2.4,0.9,3.6,0.9c1.8,0,3-0.9,3-2.4c0-1.2-0.9-1.9-2.3-2.4l-2.1-0.8
			c-1.8-0.7-3.1-2-3.1-3.9c0-2.8,2.4-4.2,5.2-4.2c1.4,0,2.8,0.3,4,0.8c0.2,0.1,0.4,0.3,0.3,0.5c0,0,0,0,0,0.1l-0.4,1
			c-0.1,0.3-0.3,0.4-0.6,0.3c-1-0.4-2.1-0.7-3.2-0.8c-1.8,0-2.7,0.9-2.7,2s0.7,1.6,2,2.1l2.4,1c1.7,0.7,3.2,2,3.2,4
			c0,2.9-2.4,4.7-5.7,4.7C160.2,133.5,158.7,133.2,157.4,132.6 M296,68.8c0,1.3-0.6,1.9-1.6,1.9c-1,0-1.6-0.6-1.6-1.9
			s0.6-1.9,1.6-1.9C295.4,66.8,296,67.5,296,68.8 M324,81.8c0,3.9-1.4,5.2-3.6,5.2s-3.6-1.3-3.6-5.2v-2.1c0-3.9,1.4-5.2,3.6-5.2
			s3.6,1.3,3.6,5.2V81.8z M320.7,72.1c-1.6-0.1-3.1,0.9-3.8,2.3h-0.1v-7.3h-2.6V89h2.6v-2h0.1c0.7,1.5,2.2,2.4,3.8,2.3
			c4.1,0,5.9-2.8,5.9-7.4v-2.4C326.7,75,324.8,72.1,320.7,72.1 M309,81.8c0,3.9-1.4,5.2-3.6,5.2s-3.6-1.3-3.6-5.2v-2.1
			c0-3.9,1.4-5.2,3.6-5.2s3.6,1.3,3.6,5.2V81.8z M305.7,72.1c-1.6-0.1-3.1,0.9-3.8,2.3h-0.1v-7.3h-2.6V89h2.6v-2h0.1
			c0.7,1.5,2.2,2.4,3.8,2.3c4.1,0,6-2.8,6-7.4v-2.4C311.6,75,309.8,72.1,305.7,72.1 M293.1,72.5h2.6V89h-2.6V72.5z M287.1,72.5h2.6
			V89h-2.6v-2.1H287c-0.7,1.6-2.3,2.5-4,2.4c-3.1,0-5-1.8-5-5.7V72.5h2.6v10.9c0,2.7,1.1,3.8,3.1,3.8c1.9,0,3.5-1.3,3.5-4.5V72.5z
			 M268.9,87c-2.2,0-3.6-1.3-3.6-5.2v-2.1c0-3.9,1.4-5.2,3.6-5.2s3.6,1.3,3.6,5.2v2.1C272.5,85.7,271.1,87,268.9,87 M272.4,74.5
			h-0.1c-0.7-1.5-2.2-2.4-3.8-2.3c-4.1,0-5.9,2.8-5.9,7.4V82c0,4.6,1.9,7.4,5.9,7.4c1.6,0.1,3.1-0.9,3.8-2.3h0.1v7.3h2.6V72.5h-2.6
			L272.4,74.5z M260.6,83.2c0,3.9-2.7,6.1-6.8,6.1c-3.9,0-7-1.9-7.4-6.1h2.9c0.3,2.5,2.1,3.6,4.5,3.6c2.8,0,4-1.7,4-3.5
			c0-6.2-11.1-2.6-11.1-10.8c0-3.5,2.8-5.8,6.6-5.8c3.7,0,6.9,1.8,7,6.2h-2.9c-0.2-2.7-1.9-3.7-4.2-3.7c-2.6,0-3.8,1.6-3.8,3.2
			C249.5,78,260.6,74.7,260.6,83.2 M239.8,84.5c0,3.2-2.4,4.9-5.8,4.9c-3.5,0-5.8-1.5-6-4.9h2.6c0.1,2,1.6,2.7,3.4,2.7
			s3.2-0.8,3.2-2.5c0-4-9-1.2-9-7.8c0-2.7,2-4.7,5.6-4.7c3.3,0,5.5,1.7,5.8,4.9H237c-0.2-1.9-1.5-2.7-3.2-2.7
			c-1.9,0-3.1,0.9-3.1,2.5C230.8,80.8,239.8,78.4,239.8,84.5 M225.8,72.5h0.8V75H226c-2.6,0-4.3,1.3-4.3,4.8V89H219V72.5h2.6v3h0.1
			C222.3,73.6,223.9,72.4,225.8,72.5 M210.2,74.5c2.1,0,3.3,1.3,3.3,5.1h-6.9C206.6,75.7,208,74.5,210.2,74.5 M210.2,72.1
			c-4.1,0-6.3,2.9-6.3,7.4V82c0,4.6,2.2,7.4,6.3,7.4c3.3,0,5.2-1.8,5.9-4.9h-2.7c-0.2,1.6-1.6,2.7-3.2,2.6c-2.2,0-3.6-1.3-3.6-5.2
			v-0.2h9.6v-2.1C216.1,75.1,214.2,72.1,210.2,72.1 M200.5,72.5h2.6l-7.3,21.9h-2.7l1.8-5.2l-5.4-16.7h2.8l4,12.9h0.1L200.5,72.5z
			 M183.3,67.1h4.4V89H185V70.2h-0.2l-5.6,15.2h-3.4l-5.5-15.2h-0.2V89h-2.7V67.1h4.7l5.5,15.2h0.2L183.3,67.1z M155.5,67.1h2.6V89
			h-2.6V67.1z M150.1,81.8c0,3.9-1.4,5.2-3.6,5.2s-3.6-1.3-3.6-5.2v-2.1c0-3.9,1.4-5.2,3.6-5.2s3.6,1.3,3.6,5.2V81.8z M146.4,72.1
			c-4.1,0-6.3,2.8-6.3,7.4V82c0,4.6,2.2,7.4,6.3,7.4s6.3-2.8,6.3-7.4v-2.4C152.7,75,150.5,72.1,146.4,72.1 M135.2,72.5h3.6v2.3h-3.6
			v9.2c0,2.4,0.6,2.9,2.2,2.9c0.4,0,0.9-0.1,1.3-0.1V89c-0.5,0.1-1.1,0.1-1.6,0.2c-3.2,0-4.5-1.3-4.5-4.8v-9.6h-2.8v-2.3h2.8v-5.3
			h2.6V72.5z M129.1,84.5c0,3.2-2.4,4.9-5.8,4.9c-3.5,0-5.8-1.5-6-4.9h2.6c0.1,2,1.6,2.7,3.4,2.7s3.2-0.8,3.2-2.5c0-4-9-1.2-9-7.8
			c0-2.7,2-4.7,5.6-4.7c3.3,0,5.5,1.7,5.8,4.9h-2.6c-0.2-1.9-1.5-2.7-3.2-2.7c-1.9,0-3.1,0.9-3.1,2.5
			C120.1,80.8,129.1,78.4,129.1,84.5 M114.9,68.7c0,1.3-0.6,1.9-1.6,1.9s-1.6-0.6-1.6-1.9s0.6-1.9,1.6-1.9S114.9,67.5,114.9,68.7
			 M112,72.5h2.6V89H112L112,72.5z M108.9,72.5h0.8V75H109c-2.6,0-4.3,1.3-4.3,4.8V89h-2.6V72.5h2.6v3h0.1
			C105.3,73.6,107,72.4,108.9,72.5 M96.8,82.9c0,2.7-2.1,3.7-5.2,3.7H88v-7.9h3.6c3.1,0,5.2,1,5.2,3.8L96.8,82.9z M88,69.6h3.2
			c3.1,0,4.6,1.2,4.6,3.2v0.2c0,2.5-2.2,3.3-5,3.3H88V69.6z M94.9,77.3v-0.1c2.3-0.8,3.7-2.2,3.7-4.6v-0.4c0-2.8-2.3-5.1-6.9-5.1
			h-6.4V89h6.9c4.5,0,7.6-2.3,7.6-5.9v-0.2C99.7,80.1,98,78,94.9,77.3 M327,100.4c0-0.2-0.2-0.3-0.3-0.4c0,0,0,0,0,0H85.2
			c-0.2,0-0.3,0.2-0.3,0.4c0,0.2,0.2,0.3,0.3,0.3h241.4C326.9,100.8,327,100.6,327,100.4C327,100.4,327,100.4,327,100.4"/>
		<path id="Path_5337" class="st19" d="M329.4,72.7c-1.7,0-3.1-1.4-3.1-3.1c0-1.7,1.4-3.1,3.1-3.1c1.7,0,3.1,1.4,3.1,3.1
			c0,0,0,0,0,0C332.4,71.3,331.1,72.7,329.4,72.7 M329.4,66.9c-1.5,0-2.7,1.2-2.7,2.7c0,1.5,1.2,2.7,2.7,2.7s2.7-1.2,2.7-2.7
			c0,0,0,0,0,0C332.1,68.2,330.9,66.9,329.4,66.9"/>
		<path id="Path_5338" class="st19" d="M329.5,70h-0.6v1.2h-0.6V68h1.1c0.3,0,0.6,0.1,0.9,0.3c0.2,0.2,0.3,0.5,0.3,0.7
			c0,0.2,0,0.4-0.2,0.5c-0.1,0.2-0.3,0.3-0.4,0.3l0.7,1.3v0h-0.6L329.5,70z M328.9,69.6h0.6c0.2,0,0.3,0,0.4-0.1
			c0.1-0.1,0.2-0.2,0.2-0.4c0-0.1,0-0.3-0.1-0.4c-0.1-0.1-0.3-0.2-0.4-0.1h-0.6L328.9,69.6z"/>
	</g>
</g>
</svg>
