<svg xmlns="http://www.w3.org/2000/svg" xmlns:xlink="http://www.w3.org/1999/xlink" width="71.362" height="71.362" viewBox="0 0 71.362 71.362">
  <defs>
    <clipPath id="clip-path">
      <rect id="Rectangle_2093" data-name="Rectangle 2093" width="71.362" height="71.362" fill="none"/>
    </clipPath>
  </defs>
  <g id="Group_1588" data-name="Group 1588" transform="translate(0 0)">
    <g id="Group_1587" data-name="Group 1587" transform="translate(0 0)" clip-path="url(#clip-path)">
      <path id="Path_5294" data-name="Path 5294" d="M15.83,34.973C9.314,32.18,2.69,25.762,2.69,17.817V5.864A1.082,1.082,0,0,1,3.772,4.782H27.559a1.082,1.082,0,0,1,1.082,1.082V17.817c0,7.945-5.445,14.363-11.961,17.156a1.116,1.116,0,0,1-.85,0M4.853,6.945V17.817c0,6.791,5.68,12.38,11.4,14.978,5.72-2.6,10.22-8.187,10.22-14.978V6.945Z" transform="translate(7.042 12.517)" fill="#be2bbb"/>
      <path id="Path_5295" data-name="Path 5295" d="M8.108,5.405A1.623,1.623,0,1,1,6.487,7.026,1.624,1.624,0,0,1,8.108,5.405m4.866,1.621a1.623,1.623,0,1,0,1.621-1.621,1.624,1.624,0,0,0-1.621,1.621m6.487,0a1.623,1.623,0,1,0,1.624-1.621A1.624,1.624,0,0,0,19.46,7.026M69.741,0H1.621A1.62,1.62,0,0,0,0,1.621V54.6a1.62,1.62,0,0,0,1.621,1.621H30.278V68.116H20.542A1.082,1.082,0,0,0,19.46,69.2V70.28a1.082,1.082,0,0,0,1.082,1.082H50.816A1.082,1.082,0,0,0,51.9,70.28V69.2a1.082,1.082,0,0,0-1.082-1.082H41.091V56.225h28.65A1.623,1.623,0,0,0,71.362,54.6V1.621A1.623,1.623,0,0,0,69.741,0M37.846,68.116H33.523v-11.9h4.323Zm30.27-15.137H3.242V12.974H68.116Zm0-42.169H3.242V3.242H68.116Zm-7.3,11.9H41.9a.809.809,0,0,1-.81-.81v-.543a.811.811,0,0,1,.81-.81H60.819a.811.811,0,0,1,.81.81V21.9a.809.809,0,0,1-.81.81m0,15.137H41.9a.809.809,0,0,1-.81-.81v-.539a.812.812,0,0,1,.81-.814H60.819a.812.812,0,0,1,.81.814v.539a.809.809,0,0,1-.81.81m0,7.568H41.9a.809.809,0,0,1-.81-.81v-.539a.812.812,0,0,1,.81-.814H60.819a.812.812,0,0,1,.81.814V44.6a.809.809,0,0,1-.81.81m0-15.137H41.9a.809.809,0,0,1-.81-.81v-.543a.811.811,0,0,1,.81-.81H60.819a.811.811,0,0,1,.81.81v.543a.809.809,0,0,1-.81.81" transform="translate(0 -0.001)" fill="#484242"/>
    </g>
  </g>
</svg>
