<svg id="Layer_1" data-name="Layer 1" xmlns="http://www.w3.org/2000/svg" xmlns:xlink="http://www.w3.org/1999/xlink" version="1.1" viewBox="0 0 72.5 71.8">
  <defs>
    <style>
      .cls-1 {
        clip-path: url(#clippath);
      }

      .cls-2 {
        fill: none;
      }

      .cls-2, .cls-3, .cls-4 {
        stroke-width: 0px;
      }

      .cls-3 {
        fill: #484242;
      }

      .cls-4 {
        fill: #be2bbb;
      }
    </style>
    <clipPath id="clippath">
      <rect class="cls-2" x="1" y=".6" width="70.5" height="70.5"/>
    </clipPath>
  </defs>
  <g id="Group_1585" data-name="Group 1585">
    <g class="cls-1">
      <g id="Group_1584" data-name="Group 1584">
        <path id="Path_5292" data-name="Path 5292" class="cls-4" d="M62.9,56.2H9.5c-.6,0-1.1-.5-1.1-1.1h0v-19.2c0-.6.5-1.1,1.1-1.1,0,0,0,0,0,0h53.4c.6,0,1.1.5,1.1,1.1,0,0,0,0,0,0v19.2c0,.6-.5,1.1-1.1,1.1h0M10.6,54h51.3v-17.1H10.6v17.1Z"/>
        <path id="Path_5293" data-name="Path 5293" class="cls-3" d="M69.3.6H3.1c-1.2,0-2.1,1-2.1,2.1v66.2c0,1.2,1,2.1,2.1,2.1h66.2c1.2,0,2.1-1,2.1-2.1V2.8c0-1.2-1-2.1-2.1-2.1M68.3,12.4H4.2V3.8h64.1v8.5ZM4.2,14.5h64.1v53.4H4.2V14.5ZM64,8.1c0,1.2-1,2.1-2.1,2.1-1.2,0-2.1-1-2.1-2.1,0-1.2,1-2.1,2.1-2.1,1.2,0,2.1,1,2.1,2.1,0,0,0,0,0,0M62.9,30.5H9.5c-.6,0-1.1-.5-1.1-1.1h0v-8.5c0-.6.5-1.1,1.1-1.1h53.4c.6,0,1.1.5,1.1,1.1h0v8.5c0,.6-.5,1.1-1.1,1.1M10.6,28.4h51.3v-6.4H10.6v6.4ZM63.2,62.6h-13.4c-.4,0-.8-.4-.8-.8v-.5c0-.4.4-.8.8-.8h13.4c.4,0,.8.4.8.8v.5c0,.4-.4.8-.8.8"/>
      </g>
    </g>
  </g>
</svg>