<svg xmlns="http://www.w3.org/2000/svg" xmlns:xlink="http://www.w3.org/1999/xlink" width="68.46" height="60.379" viewBox="0 0 68.46 60.379">
  <defs>
    <clipPath id="clip-path"/>
  </defs>
  <g id="iconThankYouCheck" transform="translate(-38.226 -44.884)">
    <g id="Group_1603" data-name="Group 1603" transform="translate(-17 -10)" clip-path="url(#clip-path)">
      <path id="Path_5320" data-name="Path 5320" d="M71.608,81.316a6.026,6.026,0,0,1-8.534,0L48.815,67.057a6.026,6.026,0,0,1,0-8.534l1.418-1.429a6.026,6.026,0,0,1,8.534,0l8.564,8.564,19.1-19.1A28.064,28.064,0,1,0,93.99,58.935Z" transform="translate(18.459 18.433)" fill="#c0f2fb"/>
      <path id="Path_5325" data-name="Path 5325" d="M61.952,78.79,47.693,64.531a2.017,2.017,0,0,1,0-2.849l1.418-1.418a2.017,2.017,0,0,1,2.849,0L63.371,71.676,96.41,38.638a2.015,2.015,0,0,1,2.847,0l1.418,1.418a2.015,2.015,0,0,1,0,2.847L64.791,78.79a2.017,2.017,0,0,1-2.849,0Z" transform="translate(22.42 18.11)" fill="#595454"/>
      <path id="Path_5326" data-name="Path 5326" d="M93.171,61.792A26.229,26.229,0,1,1,85.08,47.926a1,1,0,0,0,1.389-.021L87.9,46.476a1,1,0,0,0-.019-1.449,30.174,30.174,0,1,0,9.581,26.889,30.419,30.419,0,0,0-.664-12.267A1.008,1.008,0,0,0,95.1,59.2l-1.671,1.671a.977.977,0,0,0-.261.925" transform="translate(17.809 17.699)" fill="#595454"/>
      <path id="Path_5327" data-name="Path 5327" d="M61.952,78.79,47.693,64.531a2.017,2.017,0,0,1,0-2.849l1.418-1.418a2.017,2.017,0,0,1,2.849,0L63.371,71.676,96.41,38.638a2.015,2.015,0,0,1,2.847,0l1.418,1.418a2.015,2.015,0,0,1,0,2.847L64.791,78.79a2.017,2.017,0,0,1-2.849,0Z" transform="translate(22.42 18.11)" fill="#595454"/>
      <path id="Path_5328" data-name="Path 5328" d="M61.952,78.79,47.693,64.531a2.017,2.017,0,0,1,0-2.849l1.418-1.418a2.017,2.017,0,0,1,2.849,0L63.371,71.676,96.41,38.638a2.015,2.015,0,0,1,2.847,0l1.418,1.418a2.015,2.015,0,0,1,0,2.847L64.791,78.79a2.017,2.017,0,0,1-2.849,0Z" transform="translate(22.42 18.11)" fill="#595454"/>
    </g>
  </g>
</svg>
