<?xml version="1.0" encoding="UTF-8"?>
<svg id="Layer_1" data-name="Layer 1" xmlns="http://www.w3.org/2000/svg" viewBox="0 0 230.06 202.97">
  <defs>
    <style>
      .cls-1 {
        fill: #fff;
        stroke-width: 0px;
      }
    </style>
  </defs>
  <g id="stroke_3" data-name="stroke 3">
    <path class="cls-1" d="M223.18,118.13c-4.96-18.5-22.33-30.96-41.49-30.96h0c0-.21,0-.43,0-.65,0-34.16-27.8-61.96-61.96-61.96-18.55,0-35.43,8.19-46.87,21.41-.06.07-.16.07-.23,0l-29.27-29.27c-2.4-2.4-6.3-2.4-8.71,0h0c-2.4,2.4-2.4,6.3,0,8.71l166.48,166.48c2.4,2.4,6.3,2.4,8.7,0h0c2.41-2.4,2.43-6.29.02-8.69-4.8-4.8-12-12-13.08-13.08-.08-.08-.03-.19.07-.23,19.65-7.28,32.52-28.63,26.32-51.75ZM141.71,41.68c14.23,6.33,24.05,19.77,26.74,35.11,1,5.72,1.22,10.32.55,15.8-.21,1.75.33,3.51,1.5,4.83,1.17,1.32,2.85,2.07,4.61,2.07h5.71c16.01,0,30.2,11.85,31.51,27.81,1.34,16.31-10.3,30.24-25.7,32.57-.05,0-.11,0-.14-.05L81.61,54.94c-.06-.06-.06-.16-.01-.22,13.47-16.16,36.92-23.36,60.11-13.04Z"/>
    <path class="cls-1" d="M59.33,160.22c-22.56,0-40.68-19.38-38.59-42.37,1.83-20.17,19.63-35.15,39.87-35.15h4.23c1.66,0,4.29-1.74,4.29-1.74l-9.17-10.52s-.07-.05-.12-.05h-.01c-23.27,0-44.25,15.38-49.92,37.95-8.48,33.8,16.98,64.2,49.42,64.2h104.66c.14,0,.21-.17.11-.27l-12-12s-.07-.05-.11-.05H59.33Z"/>
  </g>
</svg>