<svg xmlns="http://www.w3.org/2000/svg" width="100.062" height="98.743" viewBox="0 0 100.062 98.743">
  <g id="Group_1653" data-name="Group 1653" transform="translate(-909.969 -360.017)">
    <path id="Path_5302" data-name="Path 5302" d="M329.685-99.222H238.721V-109.7h90.965Zm0,58.343H238.721V-96.233h90.965ZM287.235-19.932h-6.063V-36.391h6.063Zm44.721-94.253H236.448a2.264,2.264,0,0,0-2.276,2.244v73.309a2.266,2.266,0,0,0,2.276,2.246h40.175v16.454H261.465a1.505,1.505,0,0,0-1.517,1.5v1.493a1.507,1.507,0,0,0,1.517,1.5h45.477a1.509,1.509,0,0,0,1.52-1.5v-1.493a1.508,1.508,0,0,0-1.52-1.5H291.783V-36.386h40.172a2.263,2.263,0,0,0,2.278-2.246v-73.309a2.261,2.261,0,0,0-2.278-2.244m-72.008,9.728a2.26,2.26,0,0,0,2.273,2.244,2.262,2.262,0,0,0,2.276-2.244,2.261,2.261,0,0,0-2.276-2.246,2.259,2.259,0,0,0-2.273,2.246m-8.339,0a2.259,2.259,0,0,0,2.276,2.244,2.26,2.26,0,0,0,2.273-2.244,2.259,2.259,0,0,0-2.273-2.246,2.258,2.258,0,0,0-2.276,2.246m-6.063-2.246a2.261,2.261,0,0,1,2.276,2.246,2.262,2.262,0,0,1-2.276,2.244,2.262,2.262,0,0,1-2.276-2.244,2.261,2.261,0,0,1,2.276-2.246" transform="translate(675.797 474.202)" fill="#585353"/>
    <path id="Path_5304" data-name="Path 5304" d="M235.9-105.7h90.823v-2.861H235.9Z" transform="translate(678.686 483.597)" fill="#bd2bba"/>
  </g>
</svg>
