<svg xmlns="http://www.w3.org/2000/svg" width="63.852" height="89.665" viewBox="0 0 63.852 89.665">
  <g id="Group_1654" data-name="Group 1654" transform="translate(-497.582 -360.016)">
    <g id="Group_1595" data-name="Group 1595" transform="translate(497.583 360.016)">
      <path id="Path_5300" data-name="Path 5300" d="M.851,56.095A1.351,1.351,0,0,1-.495,54.559a56.981,56.981,0,0,1,8.828-23.62C14.5,21.868,22.871,16.673,31.3,16.673h.037c8.467.011,16.87,5.15,23.059,14.087a54.861,54.861,0,0,1,8.935,23.81,1.35,1.35,0,0,1-1.346,1.525H60.6a1.354,1.354,0,0,1-1.341-1.175c-2.7-18.932-14.576-34.146-27.926-34.17H31.3c-13.168,0-24.939,15.187-27.747,34.179a1.359,1.359,0,0,1-1.341,1.167ZM55.869-2.286H51.8V-14.551h4.068Zm-44.844,0H6.963V-14.551h4.063Zm13.6,8.115H32.77V9.9H24.621ZM57.91-18.627H51.061a20.412,20.412,0,0,0-19.64-14.942A20.408,20.408,0,0,0,11.786-18.627H4.922a2.038,2.038,0,0,0-2.035,2.041V-.245A2.037,2.037,0,0,0,4.922,1.793H12.4A8.275,8.275,0,0,0,20.662,9.9H21.9v1.36a1.361,1.361,0,0,0,1.36,1.357H34.135a1.359,1.359,0,0,0,1.357-1.357V4.472a1.358,1.358,0,0,0-1.357-1.36H23.264a1.36,1.36,0,0,0-1.36,1.36V7.188H20.662a5.559,5.559,0,0,1-5.55-5.548H15.1V-13.192h.016a16.32,16.32,0,0,1,16.3-16.3,16.322,16.322,0,0,1,16.307,16.3h0V-.245a2.037,2.037,0,0,0,2.035,2.038H57.91A2.039,2.039,0,0,0,59.948-.245V-16.587a2.04,2.04,0,0,0-2.038-2.041" transform="translate(0.509 33.569)" fill="#585353"/>
    </g>
    <g id="Group_1596" data-name="Group 1596" transform="translate(497.582 410.331)">
      <path id="Path_5301" data-name="Path 5301" d="M.851,24.618A1.352,1.352,0,0,1-.495,23.082,56.851,56.851,0,0,1,8.333-.5C14.5-9.545,22.871-14.732,31.3-14.732h.037c8.467.016,16.87,5.139,23.059,14.063A54.685,54.685,0,0,1,63.329,23.1a1.347,1.347,0,0,1-1.346,1.52H60.6a1.358,1.358,0,0,1-1.341-1.175C56.561,4.548,44.68-10.643,31.33-10.667H31.3C18.13-10.667,6.359,4.494,3.552,23.45a1.359,1.359,0,0,1-1.341,1.167Z" transform="translate(0.509 14.732)" fill="#bd2bba"/>
    </g>
  </g>
</svg>
