<?xml version="1.0" encoding="utf-8"?>
<!-- Generator: Adobe Illustrator 28.3.0, SVG Export Plug-In . SVG Version: 6.00 Build 0)  -->
<svg version="1.1" id="Layer_1" xmlns="http://www.w3.org/2000/svg" xmlns:xlink="http://www.w3.org/1999/xlink" x="0px" y="0px"
	 viewBox="0 0 134 131.2" style="enable-background:new 0 0 134 131.2;" xml:space="preserve">
<style type="text/css">
	.st0{fill:#585353;}
	.st1{fill:#BD2BBA;}
</style>
<g id="Group_1598">
	<path id="Path_5305" class="st0" d="M21.6,46.2h92.1v57.4H21.6V46.2z M40,24.1v7.4c0,0.8,0.7,1.5,1.5,1.5c0,0,0,0,0,0h1.5
		c0.8,0,1.5-0.6,1.5-1.5c0,0,0,0,0,0v-7.4h46v7.4c0,0.8,0.7,1.5,1.5,1.5c0,0,0,0,0,0h1.5c0.8,0,1.5-0.6,1.5-1.5c0,0,0,0,0,0v-7.4
		h18.4v17.7H21.6V24.1H40z M116,19.7H95.3v-7.4c0-0.8-0.7-1.5-1.5-1.5h-1.5c-0.8,0-1.5,0.6-1.5,1.5c0,0,0,0,0,0v7.4h-46v-7.4
		c0-0.8-0.7-1.5-1.5-1.5h-1.5c-0.8,0-1.5,0.6-1.5,1.5c0,0,0,0,0,0v7.4H19.3c-1.2,0-2.3,1-2.3,2.2v83.9c0,1.2,1.1,2.2,2.3,2.2H116
		c1.2,0,2.3-1,2.3-2.2V21.9C118.3,20.6,117.3,19.7,116,19.7 M89.2,90.3h9.2v-8.8h-9.2V90.3z M99.9,93.3H87.6c-0.8,0-1.5-0.6-1.5-1.5
		c0,0,0,0,0,0V80c0-0.8,0.7-1.5,1.5-1.5c0,0,0,0,0,0h12.3c0.8,0,1.5,0.6,1.5,1.5c0,0,0,0,0,0v11.8C101.4,92.6,100.7,93.3,99.9,93.3
		C99.9,93.3,99.9,93.3,99.9,93.3 M63.1,90.3h9.2v-8.8h-9.2V90.3z M73.8,93.3H61.5c-0.8,0-1.5-0.6-1.5-1.5c0,0,0,0,0,0V80
		c0-0.8,0.7-1.5,1.5-1.5c0,0,0,0,0,0h12.3c0.8,0,1.5,0.6,1.5,1.5c0,0,0,0,0,0v11.8C75.3,92.6,74.6,93.3,73.8,93.3
		C73.8,93.3,73.8,93.3,73.8,93.3 M37,90.3h9.2v-8.8H37L37,90.3z M47.7,93.3H35.4c-0.8,0-1.5-0.6-1.5-1.5c0,0,0,0,0,0V80
		c0-0.8,0.7-1.5,1.5-1.5c0,0,0,0,0,0h12.3c0.8,0,1.5,0.6,1.5,1.5c0,0,0,0,0,0v11.8C49.2,92.6,48.5,93.3,47.7,93.3
		C47.7,93.3,47.7,93.3,47.7,93.3 M89.2,66.8h9.2v-8.8h-9.2V66.8z M99.9,69.7H87.6c-0.8,0-1.5-0.6-1.5-1.5c0,0,0,0,0,0V56.5
		c0-0.8,0.7-1.5,1.5-1.5c0,0,0,0,0,0h12.3c0.8,0,1.5,0.6,1.5,1.5v11.8C101.4,69.1,100.7,69.7,99.9,69.7
		C99.9,69.7,99.9,69.7,99.9,69.7 M63.1,66.8h9.2v-8.8h-9.2V66.8z M73.8,69.7H61.5c-0.8,0-1.5-0.6-1.5-1.5c0,0,0,0,0,0V56.5
		c0-0.8,0.7-1.5,1.5-1.5h12.3c0.8,0,1.5,0.6,1.5,1.5c0,0,0,0,0,0v11.8C75.3,69.1,74.6,69.7,73.8,69.7C73.8,69.7,73.8,69.7,73.8,69.7
		 M37,66.8h9.2v-8.8H37L37,66.8z M47.7,69.7H35.4c-0.8,0-1.5-0.6-1.5-1.5c0,0,0,0,0,0V56.5c0-0.8,0.7-1.5,1.5-1.5c0,0,0,0,0,0h12.3
		c0.8,0,1.5,0.6,1.5,1.5v11.8C49.2,69.1,48.5,69.7,47.7,69.7C47.7,69.7,47.7,69.7,47.7,69.7"/>
	<path id="Path_5306" class="st1" d="M89.2,90.3h9.2v-8.8h-9.2V90.3z M99.9,93.3H87.6c-0.8,0-1.5-0.6-1.5-1.5c0,0,0,0,0,0V80
		c0-0.8,0.7-1.5,1.5-1.5c0,0,0,0,0,0h12.3c0.8,0,1.5,0.6,1.5,1.5c0,0,0,0,0,0v11.8C101.4,92.6,100.7,93.3,99.9,93.3
		C99.9,93.3,99.9,93.3,99.9,93.3 M63.1,90.3h9.2v-8.8h-9.2V90.3z M73.8,93.3H61.5c-0.8,0-1.5-0.6-1.5-1.5c0,0,0,0,0,0V80
		c0-0.8,0.7-1.5,1.5-1.5c0,0,0,0,0,0h12.3c0.8,0,1.5,0.6,1.5,1.5c0,0,0,0,0,0v11.8C75.3,92.6,74.6,93.3,73.8,93.3
		C73.8,93.3,73.8,93.3,73.8,93.3 M37,90.3h9.2v-8.8H37V90.3z M47.7,93.3H35.4c-0.8,0-1.5-0.6-1.5-1.5c0,0,0,0,0,0V80
		c0-0.8,0.7-1.5,1.5-1.5c0,0,0,0,0,0h12.3c0.8,0,1.5,0.6,1.5,1.5c0,0,0,0,0,0v11.8C49.2,92.6,48.5,93.3,47.7,93.3
		C47.7,93.3,47.7,93.3,47.7,93.3 M89.1,66.8h9.2v-8.8h-9.2V66.8z M99.9,69.7H87.6c-0.8,0-1.5-0.6-1.5-1.5c0,0,0,0,0,0V56.5
		c0-0.8,0.7-1.5,1.5-1.5c0,0,0,0,0,0h12.3c0.8,0,1.5,0.6,1.5,1.5v11.8C101.4,69.1,100.7,69.7,99.9,69.7
		C99.9,69.7,99.9,69.7,99.9,69.7 M63.1,66.8h9.2v-8.8h-9.2V66.8z M73.8,69.7H61.5c-0.8,0-1.5-0.6-1.5-1.5c0,0,0,0,0,0V56.5
		c0-0.8,0.7-1.5,1.5-1.5h12.3c0.8,0,1.5,0.6,1.5,1.5c0,0,0,0,0,0v11.8C75.3,69.1,74.6,69.7,73.8,69.7C73.8,69.7,73.8,69.7,73.8,69.7
		 M37,66.8h9.2v-8.8H37V66.8z M47.7,69.7H35.4c-0.8,0-1.5-0.6-1.5-1.5c0,0,0,0,0,0V56.5c0-0.8,0.7-1.5,1.5-1.5c0,0,0,0,0,0h12.3
		c0.8,0,1.5,0.6,1.5,1.5v11.8C49.2,69.1,48.5,69.7,47.7,69.7C47.7,69.7,47.7,69.7,47.7,69.7"/>
</g>
</svg>
